<svg width="24" height="24" viewBox="0 0 24 24" fill="none" xmlns="http://www.w3.org/2000/svg">
<path d="M8.68377 24C5.1119 23.9794 2.15723 16.6879 2.15723 12.9745C2.15723 6.90892 6.70762 5.58077 8.4613 5.58077C9.25162 5.58077 10.0955 5.89112 10.8398 6.16577C11.3601 6.35734 11.8986 6.55511 12.198 6.55511C12.3772 6.55511 12.7995 6.38688 13.1724 6.23927C13.9675 5.92272 14.957 5.5293 16.1091 5.5293H16.116C16.9763 5.5293 19.5847 5.71811 21.1532 8.0733L21.5206 8.62534L20.9919 9.0243C20.2366 9.5942 18.8585 10.6338 18.8585 12.6931C18.8585 15.132 20.4194 16.07 21.169 16.5211C21.5 16.7202 21.8426 16.9255 21.8426 17.3746C21.8426 17.6678 19.5025 23.9636 16.1043 23.9636C15.2728 23.9636 14.685 23.7137 14.1666 23.4933C13.642 23.2701 13.1895 23.0779 12.4416 23.0779C12.0626 23.0779 11.5833 23.2571 11.0759 23.4473C10.3828 23.7061 9.5977 24 8.70712 24H8.68377Z" fill="black"/>
<path d="M16.4688 0C16.5573 3.19106 14.2751 5.40469 11.9958 5.26603C11.62 2.71945 14.275 0 16.4688 0Z" fill="black"/>
</svg>
