<svg width="24" height="24" viewBox="0 0 24 24" fill="none" xmlns="http://www.w3.org/2000/svg">
<path d="M13.809 12.0021L1.75676 23.6076C1.47887 23.4176 1.25201 23.1622 1.0962 22.8638C0.940394 22.5655 0.860427 22.2333 0.863359 21.8967V2.10744C0.860427 1.77086 0.940394 1.43872 1.0962 1.14035C1.25201 0.84198 1.47887 0.586551 1.75676 0.396606L13.809 12.0021Z" fill="#2196F3"/>
<path d="M18.0265 7.94813L13.8093 12.0019L1.75684 0.396647C1.80226 0.361445 1.84955 0.328707 1.89848 0.298573C2.2113 0.108928 2.56894 0.00592612 2.93471 0.000136253C3.30047 -0.00565362 3.6612 0.085977 3.97986 0.265626L18.0265 7.94813Z" fill="#4CAF50"/>
<path d="M23.1374 12.0021C23.1412 12.3808 23.0418 12.7533 22.8498 13.0797C22.6578 13.4061 22.3805 13.674 22.0477 13.8547L18.0268 16.0559L13.8096 12.0021L18.0268 7.94812L22.0478 10.1493C22.3807 10.33 22.658 10.5979 22.8499 10.9244C23.0419 11.2508 23.1413 11.6234 23.1374 12.0021Z" fill="#FFC107"/>
<path d="M18.0265 16.0558L3.97986 23.7383C3.66034 23.9153 3.30001 24.0054 2.93481 23.9997C2.5696 23.9939 2.21228 23.8925 1.89848 23.7056C1.84955 23.6755 1.80226 23.6428 1.75684 23.6076L13.8091 12.0021L18.0265 16.0558Z" fill="#F44336"/>
</svg>
