<svg width="69" height="74" viewBox="0 0 69 74" fill="none" xmlns="http://www.w3.org/2000/svg">
<g filter="url(#filter0_dddd_151_147)">
<rect x="4.5" width="60" height="60" rx="30" fill="#E7F3FF"/>
<g filter="url(#filter1_dii_151_147)">
<path d="M46.5 16.7624C46.5 14.4999 43.7375 13.3999 42.1875 15.0436L40.6938 16.6186C37.7063 19.7686 33.6313 21.6624 29.2937 21.8999L27.475 21.9999H22.5C20.2938 21.9999 18.5 23.7936 18.5 25.9999V31.9999C18.5 34.2061 20.2938 35.9999 22.5 35.9999V42.4999C22.5 44.4311 24.0687 45.9999 26 45.9999H27C28.9312 45.9999 30.5 44.4311 30.5 42.4999V36.2124C34.3813 36.7061 37.9875 38.5249 40.6938 41.3874L42.1875 42.9561C43.7437 44.5936 46.5 43.4936 46.5 41.2374V16.7686V16.7624ZM28.5 36.0561V42.4999C28.5 43.3311 27.8313 43.9999 27 43.9999H26C25.1687 43.9999 24.5 43.3311 24.5 42.4999V35.9999H27.475L28.5 36.0561ZM43.6375 16.4186C43.95 16.0874 44.5 16.3124 44.5 16.7624V41.2311C44.5 41.6811 43.95 41.9061 43.6375 41.5749L42.15 40.0061C39.5312 37.2499 36.1688 35.3499 32.5 34.5311V23.4624C36.1688 22.6436 39.5312 20.7499 42.15 17.9874L43.6375 16.4186ZM30.5 23.8061V34.1999C30.1375 34.1561 29.775 34.1311 29.4062 34.1061L27.5562 33.9999H22.5062C21.4 33.9999 20.5062 33.1061 20.5062 31.9999V25.9999C20.5062 24.8936 21.4 23.9999 22.5062 23.9999H27.5562L29.4125 23.8999C29.775 23.8811 30.1438 23.8499 30.5063 23.8061H30.5ZM49.5 25.9999C48.95 25.9999 48.5 26.4499 48.5 26.9999V30.9999C48.5 31.5499 48.95 31.9999 49.5 31.9999C50.05 31.9999 50.5 31.5499 50.5 30.9999V26.9999C50.5 26.4499 50.05 25.9999 49.5 25.9999Z" fill="#6BB6FF"/>
<path d="M43.6375 16.4186C43.95 16.0874 44.5 16.3124 44.5 16.7624V41.2311C44.5 41.6811 43.95 41.9061 43.6375 41.5749L42.15 40.0061C39.5312 37.2499 36.1688 35.3499 32.5 34.5311V23.4624C36.1688 22.6436 39.5312 20.7499 42.15 17.9874L43.6375 16.4186Z" fill="#E7F3FF"/>
<path d="M30.5 34.1999V23.8061C30.1395 23.8495 29.7729 23.8812 29.4125 23.8999L27.5562 23.9999H22.5062C21.4 23.9999 20.5062 24.8936 20.5062 25.9999V31.9999C20.5062 33.1061 21.4 33.9999 22.5062 33.9999H27.5562L29.4062 34.1061C29.775 34.1311 30.1375 34.1561 30.5 34.1999Z" fill="#6BB6FF"/>
<path d="M28.5 36.0561V42.4999C28.5 43.3311 27.8313 43.9999 27 43.9999H26C25.1687 43.9999 24.5 43.3311 24.5 42.4999V35.9999H27.475L28.5 36.0561Z" fill="#E7F3FF"/>
</g>
</g>
<defs>
<filter id="filter0_dddd_151_147" x="0.5" y="0" width="68" height="74" filterUnits="userSpaceOnUse" color-interpolation-filters="sRGB">
<feFlood flood-opacity="0" result="BackgroundImageFix"/>
<feColorMatrix in="SourceAlpha" type="matrix" values="0 0 0 0 0 0 0 0 0 0 0 0 0 0 0 0 0 0 127 0" result="hardAlpha"/>
<feOffset dy="1"/>
<feGaussianBlur stdDeviation="0.5"/>
<feColorMatrix type="matrix" values="0 0 0 0 0 0 0 0 0 0 0 0 0 0 0 0 0 0 0.07 0"/>
<feBlend mode="normal" in2="BackgroundImageFix" result="effect1_dropShadow_151_147"/>
<feColorMatrix in="SourceAlpha" type="matrix" values="0 0 0 0 0 0 0 0 0 0 0 0 0 0 0 0 0 0 127 0" result="hardAlpha"/>
<feOffset dy="2"/>
<feGaussianBlur stdDeviation="1"/>
<feColorMatrix type="matrix" values="0 0 0 0 0 0 0 0 0 0 0 0 0 0 0 0 0 0 0.06 0"/>
<feBlend mode="normal" in2="effect1_dropShadow_151_147" result="effect2_dropShadow_151_147"/>
<feColorMatrix in="SourceAlpha" type="matrix" values="0 0 0 0 0 0 0 0 0 0 0 0 0 0 0 0 0 0 127 0" result="hardAlpha"/>
<feOffset dy="5"/>
<feGaussianBlur stdDeviation="1.5"/>
<feColorMatrix type="matrix" values="0 0 0 0 0 0 0 0 0 0 0 0 0 0 0 0 0 0 0.03 0"/>
<feBlend mode="normal" in2="effect2_dropShadow_151_147" result="effect3_dropShadow_151_147"/>
<feColorMatrix in="SourceAlpha" type="matrix" values="0 0 0 0 0 0 0 0 0 0 0 0 0 0 0 0 0 0 127 0" result="hardAlpha"/>
<feOffset dy="10"/>
<feGaussianBlur stdDeviation="2"/>
<feColorMatrix type="matrix" values="0 0 0 0 0 0 0 0 0 0 0 0 0 0 0 0 0 0 0.01 0"/>
<feBlend mode="normal" in2="effect3_dropShadow_151_147" result="effect4_dropShadow_151_147"/>
<feBlend mode="normal" in="SourceGraphic" in2="effect4_dropShadow_151_147" result="shape"/>
</filter>
<filter id="filter1_dii_151_147" x="15.9" y="13.2559" width="37.2" height="36.9441" filterUnits="userSpaceOnUse" color-interpolation-filters="sRGB">
<feFlood flood-opacity="0" result="BackgroundImageFix"/>
<feColorMatrix in="SourceAlpha" type="matrix" values="0 0 0 0 0 0 0 0 0 0 0 0 0 0 0 0 0 0 127 0" result="hardAlpha"/>
<feOffset dy="1.6"/>
<feGaussianBlur stdDeviation="1.3"/>
<feComposite in2="hardAlpha" operator="out"/>
<feColorMatrix type="matrix" values="0 0 0 0 0 0 0 0 0 0 0 0 0 0 0 0 0 0 0.2 0"/>
<feBlend mode="normal" in2="BackgroundImageFix" result="effect1_dropShadow_151_147"/>
<feBlend mode="normal" in="SourceGraphic" in2="effect1_dropShadow_151_147" result="shape"/>
<feColorMatrix in="SourceAlpha" type="matrix" values="0 0 0 0 0 0 0 0 0 0 0 0 0 0 0 0 0 0 127 0" result="hardAlpha"/>
<feOffset dy="1"/>
<feGaussianBlur stdDeviation="0.9"/>
<feComposite in2="hardAlpha" operator="arithmetic" k2="-1" k3="1"/>
<feColorMatrix type="matrix" values="0 0 0 0 1 0 0 0 0 1 0 0 0 0 1 0 0 0 0.9 0"/>
<feBlend mode="normal" in2="shape" result="effect2_innerShadow_151_147"/>
<feColorMatrix in="SourceAlpha" type="matrix" values="0 0 0 0 0 0 0 0 0 0 0 0 0 0 0 0 0 0 127 0" result="hardAlpha"/>
<feOffset dy="-1"/>
<feGaussianBlur stdDeviation="0.45"/>
<feComposite in2="hardAlpha" operator="arithmetic" k2="-1" k3="1"/>
<feColorMatrix type="matrix" values="0 0 0 0 0 0 0 0 0 0 0 0 0 0 0 0 0 0 0.24 0"/>
<feBlend mode="normal" in2="effect2_innerShadow_151_147" result="effect3_innerShadow_151_147"/>
</filter>
</defs>
</svg>
