<svg width="68" height="74" viewBox="0 0 68 74" fill="none" xmlns="http://www.w3.org/2000/svg">
<g filter="url(#filter0_dddd_151_161)">
<rect x="4" width="60" height="60" rx="30" fill="#E7F3FF"/>
<g filter="url(#filter1_dii_151_161)">
<path d="M27 14C27.55 14 28 14.45 28 15V18H40V15C40 14.45 40.45 14 41 14C41.55 14 42 14.45 42 15V18H44C46.2062 18 48 19.7937 48 22V42C48 44.2062 46.2062 46 44 46H24C21.7938 46 20 44.2062 20 42V22C20 19.7937 21.7938 18 24 18H26V15C26 14.45 26.45 14 27 14ZM46 26H39.5V30.5H46V26ZM46 32.5H39.5V37.5H46V32.5ZM46 39.5H39.5V44H44C45.1063 44 46 43.1063 46 42V39.5ZM37.5 37.5V32.5H30.5V37.5H37.5ZM30.5 39.5V44H37.5V39.5H30.5ZM28.5 37.5V32.5H22V37.5H28.5ZM22 39.5V42C22 43.1063 22.8937 44 24 44H28.5V39.5H22ZM22 30.5H28.5V26H22V30.5ZM30.5 30.5H37.5V26H30.5V30.5ZM44 20H24C22.8937 20 22 20.8938 22 22V24H46V22C46 20.8938 45.1063 20 44 20Z" fill="#6BB6FF"/>
<path d="M44 20H24C22.8937 20 22 20.8938 22 22V24H46V22C46 20.8938 45.1063 20 44 20Z" fill="#9ECFFF"/>
<path d="M22 30.5H28.5V26H22V30.5Z" fill="#E7F3FF"/>
<path d="M30.5 30.5H37.5V26H30.5V30.5Z" fill="#E7F3FF"/>
<path d="M37.5 37.5V32.5H30.5V37.5H37.5Z" fill="#E7F3FF"/>
<path d="M28.5 37.5V32.5H22V37.5H28.5Z" fill="#E7F3FF"/>
<path d="M22 39.5V42C22 43.1063 22.8937 44 24 44H28.5V39.5H22Z" fill="#E7F3FF"/>
<path d="M30.5 39.5V44H37.5V39.5H30.5Z" fill="#E7F3FF"/>
<path d="M46 39.5H39.5V44H44C45.1063 44 46 43.1063 46 42V39.5Z" fill="#9ECFFF"/>
<path d="M46 32.5H39.5V37.5H46V32.5Z" fill="#9ECFFF"/>
<path d="M46 26H39.5V30.5H46V26Z" fill="#9ECFFF"/>
</g>
</g>
<defs>
<filter id="filter0_dddd_151_161" x="0" y="0" width="68" height="74" filterUnits="userSpaceOnUse" color-interpolation-filters="sRGB">
<feFlood flood-opacity="0" result="BackgroundImageFix"/>
<feColorMatrix in="SourceAlpha" type="matrix" values="0 0 0 0 0 0 0 0 0 0 0 0 0 0 0 0 0 0 127 0" result="hardAlpha"/>
<feOffset dy="1"/>
<feGaussianBlur stdDeviation="0.5"/>
<feColorMatrix type="matrix" values="0 0 0 0 0 0 0 0 0 0 0 0 0 0 0 0 0 0 0.07 0"/>
<feBlend mode="normal" in2="BackgroundImageFix" result="effect1_dropShadow_151_161"/>
<feColorMatrix in="SourceAlpha" type="matrix" values="0 0 0 0 0 0 0 0 0 0 0 0 0 0 0 0 0 0 127 0" result="hardAlpha"/>
<feOffset dy="2"/>
<feGaussianBlur stdDeviation="1"/>
<feColorMatrix type="matrix" values="0 0 0 0 0 0 0 0 0 0 0 0 0 0 0 0 0 0 0.06 0"/>
<feBlend mode="normal" in2="effect1_dropShadow_151_161" result="effect2_dropShadow_151_161"/>
<feColorMatrix in="SourceAlpha" type="matrix" values="0 0 0 0 0 0 0 0 0 0 0 0 0 0 0 0 0 0 127 0" result="hardAlpha"/>
<feOffset dy="5"/>
<feGaussianBlur stdDeviation="1.5"/>
<feColorMatrix type="matrix" values="0 0 0 0 0 0 0 0 0 0 0 0 0 0 0 0 0 0 0.03 0"/>
<feBlend mode="normal" in2="effect2_dropShadow_151_161" result="effect3_dropShadow_151_161"/>
<feColorMatrix in="SourceAlpha" type="matrix" values="0 0 0 0 0 0 0 0 0 0 0 0 0 0 0 0 0 0 127 0" result="hardAlpha"/>
<feOffset dy="10"/>
<feGaussianBlur stdDeviation="2"/>
<feColorMatrix type="matrix" values="0 0 0 0 0 0 0 0 0 0 0 0 0 0 0 0 0 0 0.01 0"/>
<feBlend mode="normal" in2="effect3_dropShadow_151_161" result="effect4_dropShadow_151_161"/>
<feBlend mode="normal" in="SourceGraphic" in2="effect4_dropShadow_151_161" result="shape"/>
</filter>
<filter id="filter1_dii_151_161" x="17.4" y="12.4" width="33.2" height="37.2" filterUnits="userSpaceOnUse" color-interpolation-filters="sRGB">
<feFlood flood-opacity="0" result="BackgroundImageFix"/>
<feColorMatrix in="SourceAlpha" type="matrix" values="0 0 0 0 0 0 0 0 0 0 0 0 0 0 0 0 0 0 127 0" result="hardAlpha"/>
<feOffset dy="1"/>
<feGaussianBlur stdDeviation="1.3"/>
<feComposite in2="hardAlpha" operator="out"/>
<feColorMatrix type="matrix" values="0 0 0 0 0 0 0 0 0 0 0 0 0 0 0 0 0 0 0.21 0"/>
<feBlend mode="normal" in2="BackgroundImageFix" result="effect1_dropShadow_151_161"/>
<feBlend mode="normal" in="SourceGraphic" in2="effect1_dropShadow_151_161" result="shape"/>
<feColorMatrix in="SourceAlpha" type="matrix" values="0 0 0 0 0 0 0 0 0 0 0 0 0 0 0 0 0 0 127 0" result="hardAlpha"/>
<feOffset dy="0.4"/>
<feGaussianBlur stdDeviation="0.65"/>
<feComposite in2="hardAlpha" operator="arithmetic" k2="-1" k3="1"/>
<feColorMatrix type="matrix" values="0 0 0 0 1 0 0 0 0 1 0 0 0 0 1 0 0 0 0.8 0"/>
<feBlend mode="normal" in2="shape" result="effect2_innerShadow_151_161"/>
<feColorMatrix in="SourceAlpha" type="matrix" values="0 0 0 0 0 0 0 0 0 0 0 0 0 0 0 0 0 0 127 0" result="hardAlpha"/>
<feOffset dy="-1"/>
<feGaussianBlur stdDeviation="0.45"/>
<feComposite in2="hardAlpha" operator="arithmetic" k2="-1" k3="1"/>
<feColorMatrix type="matrix" values="0 0 0 0 0 0 0 0 0 0 0 0 0 0 0 0 0 0 0.24 0"/>
<feBlend mode="normal" in2="effect2_innerShadow_151_161" result="effect3_innerShadow_151_161"/>
</filter>
</defs>
</svg>
