<svg width="68" height="74" viewBox="0 0 68 74" fill="none" xmlns="http://www.w3.org/2000/svg">
<g filter="url(#filter0_dddd_151_175)">
<rect x="4" width="60" height="60" rx="30" fill="#E7F3FF"/>
<g filter="url(#filter1_dii_151_175)">
<path d="M22.8 21.2002C22.8 20.5637 23.0529 19.9532 23.5029 19.5031C23.953 19.0531 24.5635 18.8002 25.2 18.8002C25.8365 18.8002 26.447 19.0531 26.8971 19.5031C27.3471 19.9532 27.6 20.5637 27.6 21.2002C27.6 21.8367 27.3471 22.4472 26.8971 22.8973C26.447 23.3473 25.8365 23.6002 25.2 23.6002C24.5635 23.6002 23.953 23.3473 23.5029 22.8973C23.0529 22.4472 22.8 21.8367 22.8 21.2002ZM29.2 21.2002C29.2 20.1393 28.7786 19.1219 28.0284 18.3718C27.2783 17.6216 26.2609 17.2002 25.2 17.2002C24.1391 17.2002 23.1217 17.6216 22.3716 18.3718C21.6214 19.1219 21.2 20.1393 21.2 21.2002C21.2 22.2611 21.6214 23.2785 22.3716 24.0286C23.1217 24.7788 24.1391 25.2002 25.2 25.2002C26.2609 25.2002 27.2783 24.7788 28.0284 24.0286C28.7786 23.2785 29.2 22.2611 29.2 21.2002ZM34 25.2002C34.8487 25.2002 35.6626 25.5373 36.2627 26.1375C36.8629 26.7376 37.2 27.5515 37.2 28.4002C37.2 29.2489 36.8629 30.0628 36.2627 30.6629C35.6626 31.2631 34.8487 31.6002 34 31.6002C33.1513 31.6002 32.3374 31.2631 31.7373 30.6629C31.1371 30.0628 30.8 29.2489 30.8 28.4002C30.8 27.5515 31.1371 26.7376 31.7373 26.1375C32.3374 25.5373 33.1513 25.2002 34 25.2002ZM34 33.2002C34.6303 33.2002 35.2545 33.076 35.8369 32.8348C36.4192 32.5936 36.9484 32.24 37.3941 31.7943C37.8398 31.3486 38.1934 30.8194 38.4346 30.2371C38.6758 29.6547 38.8 29.0305 38.8 28.4002C38.8 27.7698 38.6758 27.1457 38.4346 26.5633C38.1934 25.981 37.8398 25.4518 37.3941 25.0061C36.9484 24.5604 36.4192 24.2068 35.8369 23.9656C35.2545 23.7244 34.6303 23.6002 34 23.6002C33.3697 23.6002 32.7455 23.7244 32.1631 23.9656C31.5808 24.2068 31.0516 24.5604 30.6059 25.0061C30.1602 25.4518 29.8066 25.981 29.5654 26.5633C29.3242 27.1457 29.2 27.7698 29.2 28.4002C29.2 29.0305 29.3242 29.6547 29.5654 30.2371C29.8066 30.8194 30.1602 31.3486 30.6059 31.7943C31.0516 32.24 31.5808 32.5936 32.1631 32.8348C32.7455 33.076 33.3697 33.2002 34 33.2002ZM31.065 36.4002H36.93C39.64 36.4002 41.85 38.5252 41.99 41.2002H26.005C26.145 38.5252 28.355 36.4002 31.065 36.4002ZM31.065 34.8002C27.385 34.8002 24.4 37.7852 24.4 41.4652C24.4 42.2002 24.995 42.8002 25.735 42.8002H42.27C43.005 42.8002 43.605 42.2052 43.605 41.4652C43.6 37.7852 40.615 34.8002 36.935 34.8002H31.07H31.065ZM43.6 18.8002C44.2365 18.8002 44.847 19.0531 45.2971 19.5031C45.7471 19.9532 46 20.5637 46 21.2002C46 21.8367 45.7471 22.4472 45.2971 22.8973C44.847 23.3473 44.2365 23.6002 43.6 23.6002C42.9635 23.6002 42.353 23.3473 41.9029 22.8973C41.4529 22.4472 41.2 21.8367 41.2 21.2002C41.2 20.5637 41.4529 19.9532 41.9029 19.5031C42.353 19.0531 42.9635 18.8002 43.6 18.8002ZM43.6 25.2002C44.6609 25.2002 45.6783 24.7788 46.4284 24.0286C47.1786 23.2785 47.6 22.2611 47.6 21.2002C47.6 20.1393 47.1786 19.1219 46.4284 18.3718C45.6783 17.6216 44.6609 17.2002 43.6 17.2002C42.5391 17.2002 41.5217 17.6216 40.7716 18.3718C40.0214 19.1219 39.6 20.1393 39.6 21.2002C39.6 22.2611 40.0214 23.2785 40.7716 24.0286C41.5217 24.7788 42.5391 25.2002 43.6 25.2002ZM44.4 28.4002C46.61 28.4002 48.4 30.1902 48.4 32.4002C48.4 32.8402 48.76 33.2002 49.2 33.2002C49.64 33.2002 50 32.8402 50 32.4002C50 29.3052 47.495 26.8002 44.4 26.8002H40.2C40.33 27.3102 40.4 27.8502 40.4 28.4002H44.4ZM27.6 28.4002C27.6 27.8502 27.67 27.3102 27.8 26.8002H23.6C20.505 26.8002 18 29.3052 18 32.4002C18 32.8402 18.36 33.2002 18.8 33.2002C19.24 33.2002 19.6 32.8402 19.6 32.4002C19.6 30.1902 21.39 28.4002 23.6 28.4002H27.6Z" fill="#6BB6FF"/>
<path d="M43.6 18.8002C44.2365 18.8002 44.847 19.0531 45.2971 19.5031C45.7471 19.9532 46 20.5637 46 21.2002C46 21.8367 45.7471 22.4472 45.2971 22.8973C44.847 23.3473 44.2365 23.6002 43.6 23.6002C42.9635 23.6002 42.353 23.3473 41.9029 22.8973C41.4529 22.4472 41.2 21.8367 41.2 21.2002C41.2 20.5637 41.4529 19.9532 41.9029 19.5031C42.353 19.0531 42.9635 18.8002 43.6 18.8002Z" fill="#6BB6FF"/>
<path d="M34 25.2002C34.8487 25.2002 35.6626 25.5373 36.2627 26.1375C36.8629 26.7376 37.2 27.5515 37.2 28.4002C37.2 29.2489 36.8629 30.0628 36.2627 30.6629C35.6626 31.2631 34.8487 31.6002 34 31.6002C33.1513 31.6002 32.3374 31.2631 31.7373 30.6629C31.1371 30.0628 30.8 29.2489 30.8 28.4002C30.8 27.5515 31.1371 26.7376 31.7373 26.1375C32.3374 25.5373 33.1513 25.2002 34 25.2002Z" fill="#6BB6FF"/>
<path d="M22.8 21.2002C22.8 20.5637 23.0529 19.9532 23.5029 19.5031C23.953 19.0531 24.5635 18.8002 25.2 18.8002C25.8365 18.8002 26.447 19.0531 26.8971 19.5031C27.3471 19.9532 27.6 20.5637 27.6 21.2002C27.6 21.8367 27.3471 22.4472 26.8971 22.8973C26.447 23.3473 25.8365 23.6002 25.2 23.6002C24.5635 23.6002 23.953 23.3473 23.5029 22.8973C23.0529 22.4472 22.8 21.8367 22.8 21.2002Z" fill="#6BB6FF"/>
</g>
</g>
<defs>
<filter id="filter0_dddd_151_175" x="0" y="0" width="68" height="74" filterUnits="userSpaceOnUse" color-interpolation-filters="sRGB">
<feFlood flood-opacity="0" result="BackgroundImageFix"/>
<feColorMatrix in="SourceAlpha" type="matrix" values="0 0 0 0 0 0 0 0 0 0 0 0 0 0 0 0 0 0 127 0" result="hardAlpha"/>
<feOffset dy="1"/>
<feGaussianBlur stdDeviation="0.5"/>
<feColorMatrix type="matrix" values="0 0 0 0 0 0 0 0 0 0 0 0 0 0 0 0 0 0 0.07 0"/>
<feBlend mode="normal" in2="BackgroundImageFix" result="effect1_dropShadow_151_175"/>
<feColorMatrix in="SourceAlpha" type="matrix" values="0 0 0 0 0 0 0 0 0 0 0 0 0 0 0 0 0 0 127 0" result="hardAlpha"/>
<feOffset dy="2"/>
<feGaussianBlur stdDeviation="1"/>
<feColorMatrix type="matrix" values="0 0 0 0 0 0 0 0 0 0 0 0 0 0 0 0 0 0 0.06 0"/>
<feBlend mode="normal" in2="effect1_dropShadow_151_175" result="effect2_dropShadow_151_175"/>
<feColorMatrix in="SourceAlpha" type="matrix" values="0 0 0 0 0 0 0 0 0 0 0 0 0 0 0 0 0 0 127 0" result="hardAlpha"/>
<feOffset dy="5"/>
<feGaussianBlur stdDeviation="1.5"/>
<feColorMatrix type="matrix" values="0 0 0 0 0 0 0 0 0 0 0 0 0 0 0 0 0 0 0.03 0"/>
<feBlend mode="normal" in2="effect2_dropShadow_151_175" result="effect3_dropShadow_151_175"/>
<feColorMatrix in="SourceAlpha" type="matrix" values="0 0 0 0 0 0 0 0 0 0 0 0 0 0 0 0 0 0 127 0" result="hardAlpha"/>
<feOffset dy="10"/>
<feGaussianBlur stdDeviation="2"/>
<feColorMatrix type="matrix" values="0 0 0 0 0 0 0 0 0 0 0 0 0 0 0 0 0 0 0.01 0"/>
<feBlend mode="normal" in2="effect3_dropShadow_151_175" result="effect4_dropShadow_151_175"/>
<feBlend mode="normal" in="SourceGraphic" in2="effect4_dropShadow_151_175" result="shape"/>
</filter>
<filter id="filter1_dii_151_175" x="16.3" y="13.3" width="35.4" height="35.4" filterUnits="userSpaceOnUse" color-interpolation-filters="sRGB">
<feFlood flood-opacity="0" result="BackgroundImageFix"/>
<feColorMatrix in="SourceAlpha" type="matrix" values="0 0 0 0 0 0 0 0 0 0 0 0 0 0 0 0 0 0 127 0" result="hardAlpha"/>
<feOffset dy="1"/>
<feGaussianBlur stdDeviation="0.85"/>
<feComposite in2="hardAlpha" operator="out"/>
<feColorMatrix type="matrix" values="0 0 0 0 0 0 0 0 0 0 0 0 0 0 0 0 0 0 0.25 0"/>
<feBlend mode="normal" in2="BackgroundImageFix" result="effect1_dropShadow_151_175"/>
<feBlend mode="normal" in="SourceGraphic" in2="effect1_dropShadow_151_175" result="shape"/>
<feColorMatrix in="SourceAlpha" type="matrix" values="0 0 0 0 0 0 0 0 0 0 0 0 0 0 0 0 0 0 127 0" result="hardAlpha"/>
<feOffset dy="0.4"/>
<feGaussianBlur stdDeviation="0.4"/>
<feComposite in2="hardAlpha" operator="arithmetic" k2="-1" k3="1"/>
<feColorMatrix type="matrix" values="0 0 0 0 1 0 0 0 0 1 0 0 0 0 1 0 0 0 0.9 0"/>
<feBlend mode="normal" in2="shape" result="effect2_innerShadow_151_175"/>
<feColorMatrix in="SourceAlpha" type="matrix" values="0 0 0 0 0 0 0 0 0 0 0 0 0 0 0 0 0 0 127 0" result="hardAlpha"/>
<feOffset dy="-0.4"/>
<feGaussianBlur stdDeviation="0.3"/>
<feComposite in2="hardAlpha" operator="arithmetic" k2="-1" k3="1"/>
<feColorMatrix type="matrix" values="0 0 0 0 0 0 0 0 0 0 0 0 0 0 0 0 0 0 0.14 0"/>
<feBlend mode="normal" in2="effect2_innerShadow_151_175" result="effect3_innerShadow_151_175"/>
</filter>
</defs>
</svg>
