<svg width="68" height="74" viewBox="0 0 68 74" fill="none" xmlns="http://www.w3.org/2000/svg">
<g filter="url(#filter0_dddd_151_182)">
<rect x="4" width="60" height="60" rx="30" fill="#E7F3FF"/>
<g filter="url(#filter1_dii_151_182)">
<path d="M28.135 31.6002H35.6C36.485 31.6002 37.2 30.8852 37.2 30.0002V20.4002C37.2 19.5152 36.485 18.8002 35.6 18.8002H21.2C20.315 18.8002 19.6 19.5152 19.6 20.4002V30.0002C19.6 30.8852 20.315 31.6002 21.2 31.6002H22.8C23.685 31.6002 24.4 32.3152 24.4 33.2002V34.0002L27.175 31.9202C27.45 31.7102 27.79 31.6002 28.135 31.6002ZM35.6 33.2002H28.135L24.08 36.2402C23.84 36.4202 23.515 36.4502 23.24 36.3152C22.965 36.1802 22.8 35.9052 22.8 35.6002V33.2002H21.2C19.435 33.2002 18 31.7652 18 30.0002V20.4002C18 18.6352 19.435 17.2002 21.2 17.2002H35.6C37.365 17.2002 38.8 18.6352 38.8 20.4002V30.0002C38.8 31.7652 37.365 33.2002 35.6 33.2002ZM34 39.6002C32.235 39.6002 30.8 38.1652 30.8 36.4002V33.2002H32.4V36.4002C32.4 37.2852 33.115 38.0002 34 38.0002H39.865C40.21 38.0002 40.55 38.1102 40.825 38.3202L43.6 40.4002V39.6002C43.6 38.7152 44.315 38.0002 45.2 38.0002H46.8C47.685 38.0002 48.4 37.2852 48.4 36.4002V26.8002C48.4 25.9152 47.685 25.2002 46.8 25.2002H38.8V23.6002H46.8C48.565 23.6002 50 25.0352 50 26.8002V36.4002C50 38.1652 48.565 39.6002 46.8 39.6002H45.2V42.0002C45.2 42.3052 45.03 42.5802 44.76 42.7152C44.49 42.8502 44.165 42.8202 43.92 42.6402L39.865 39.6002H34Z" fill="#6BB6FF"/>
<path d="M35.6 33.2002H32.4V36.4002C32.4 37.2852 33.115 38.0002 34 38.0002H39.865C40.21 38.0002 40.55 38.1102 40.825 38.3202L43.6 40.4002V39.6002C43.6 38.7152 44.315 38.0002 45.2 38.0002H46.8C47.685 38.0002 48.4 37.2852 48.4 36.4002V26.8002C48.4 25.9152 47.685 25.2002 46.8 25.2002H38.8V30.0002C38.8 31.7652 37.365 33.2002 35.6 33.2002Z" fill="#E7F3FF"/>
<path d="M28.135 31.6002H35.6C36.485 31.6002 37.2 30.8852 37.2 30.0002V20.4002C37.2 19.5152 36.485 18.8002 35.6 18.8002H21.2C20.315 18.8002 19.6 19.5152 19.6 20.4002V30.0002C19.6 30.8852 20.315 31.6002 21.2 31.6002H22.8C23.685 31.6002 24.4 32.3152 24.4 33.2002V34.0002L27.175 31.9202C27.45 31.7102 27.79 31.6002 28.135 31.6002Z" fill="#6BB6FF"/>
</g>
</g>
<defs>
<filter id="filter0_dddd_151_182" x="0" y="0" width="68" height="74" filterUnits="userSpaceOnUse" color-interpolation-filters="sRGB">
<feFlood flood-opacity="0" result="BackgroundImageFix"/>
<feColorMatrix in="SourceAlpha" type="matrix" values="0 0 0 0 0 0 0 0 0 0 0 0 0 0 0 0 0 0 127 0" result="hardAlpha"/>
<feOffset dy="1"/>
<feGaussianBlur stdDeviation="0.5"/>
<feColorMatrix type="matrix" values="0 0 0 0 0 0 0 0 0 0 0 0 0 0 0 0 0 0 0.07 0"/>
<feBlend mode="normal" in2="BackgroundImageFix" result="effect1_dropShadow_151_182"/>
<feColorMatrix in="SourceAlpha" type="matrix" values="0 0 0 0 0 0 0 0 0 0 0 0 0 0 0 0 0 0 127 0" result="hardAlpha"/>
<feOffset dy="2"/>
<feGaussianBlur stdDeviation="1"/>
<feColorMatrix type="matrix" values="0 0 0 0 0 0 0 0 0 0 0 0 0 0 0 0 0 0 0.06 0"/>
<feBlend mode="normal" in2="effect1_dropShadow_151_182" result="effect2_dropShadow_151_182"/>
<feColorMatrix in="SourceAlpha" type="matrix" values="0 0 0 0 0 0 0 0 0 0 0 0 0 0 0 0 0 0 127 0" result="hardAlpha"/>
<feOffset dy="5"/>
<feGaussianBlur stdDeviation="1.5"/>
<feColorMatrix type="matrix" values="0 0 0 0 0 0 0 0 0 0 0 0 0 0 0 0 0 0 0.03 0"/>
<feBlend mode="normal" in2="effect2_dropShadow_151_182" result="effect3_dropShadow_151_182"/>
<feColorMatrix in="SourceAlpha" type="matrix" values="0 0 0 0 0 0 0 0 0 0 0 0 0 0 0 0 0 0 127 0" result="hardAlpha"/>
<feOffset dy="10"/>
<feGaussianBlur stdDeviation="2"/>
<feColorMatrix type="matrix" values="0 0 0 0 0 0 0 0 0 0 0 0 0 0 0 0 0 0 0.01 0"/>
<feBlend mode="normal" in2="effect3_dropShadow_151_182" result="effect4_dropShadow_151_182"/>
<feBlend mode="normal" in="SourceGraphic" in2="effect4_dropShadow_151_182" result="shape"/>
</filter>
<filter id="filter1_dii_151_182" x="15.4" y="15.6002" width="37.2" height="30.7986" filterUnits="userSpaceOnUse" color-interpolation-filters="sRGB">
<feFlood flood-opacity="0" result="BackgroundImageFix"/>
<feColorMatrix in="SourceAlpha" type="matrix" values="0 0 0 0 0 0 0 0 0 0 0 0 0 0 0 0 0 0 127 0" result="hardAlpha"/>
<feOffset dy="1"/>
<feGaussianBlur stdDeviation="1.3"/>
<feComposite in2="hardAlpha" operator="out"/>
<feColorMatrix type="matrix" values="0 0 0 0 0 0 0 0 0 0 0 0 0 0 0 0 0 0 0.21 0"/>
<feBlend mode="normal" in2="BackgroundImageFix" result="effect1_dropShadow_151_182"/>
<feBlend mode="normal" in="SourceGraphic" in2="effect1_dropShadow_151_182" result="shape"/>
<feColorMatrix in="SourceAlpha" type="matrix" values="0 0 0 0 0 0 0 0 0 0 0 0 0 0 0 0 0 0 127 0" result="hardAlpha"/>
<feOffset dy="0.4"/>
<feGaussianBlur stdDeviation="0.65"/>
<feComposite in2="hardAlpha" operator="arithmetic" k2="-1" k3="1"/>
<feColorMatrix type="matrix" values="0 0 0 0 1 0 0 0 0 1 0 0 0 0 1 0 0 0 0.8 0"/>
<feBlend mode="normal" in2="shape" result="effect2_innerShadow_151_182"/>
<feColorMatrix in="SourceAlpha" type="matrix" values="0 0 0 0 0 0 0 0 0 0 0 0 0 0 0 0 0 0 127 0" result="hardAlpha"/>
<feOffset dy="-1"/>
<feGaussianBlur stdDeviation="0.45"/>
<feComposite in2="hardAlpha" operator="arithmetic" k2="-1" k3="1"/>
<feColorMatrix type="matrix" values="0 0 0 0 0 0 0 0 0 0 0 0 0 0 0 0 0 0 0.24 0"/>
<feBlend mode="normal" in2="effect2_innerShadow_151_182" result="effect3_innerShadow_151_182"/>
</filter>
</defs>
</svg>
