<svg width="68" height="74" viewBox="0 0 68 74" fill="none" xmlns="http://www.w3.org/2000/svg">
<g filter="url(#filter0_dddd_151_189)">
<rect x="4" width="60" height="60" rx="30" fill="#E7F3FF"/>
<g filter="url(#filter1_dii_151_189)">
<path d="M20 18C20 15.7938 21.7938 14 24 14H45C46.6562 14 48 15.3438 48 17V37C48 38.3062 47.1625 39.4187 46 39.8312V44H47C47.55 44 48 44.45 48 45C48 45.55 47.55 46 47 46H24C21.7938 46 20 44.2062 20 42V18ZM24 40C22.8937 40 22 40.8937 22 42C22 43.1063 22.8937 44 24 44H44V40H24ZM22 38.5375C22.5875 38.2 23.2687 38 24 38H45C45.55 38 46 37.55 46 37V17C46 16.45 45.55 16 45 16H24C22.8937 16 22 16.8937 22 18V38.5375ZM34 18.5H36C37.1063 18.5 38 19.3938 38 20.5V22.5H40C41.1063 22.5 42 23.3938 42 24.5V26.5C42 27.6062 41.1063 28.5 40 28.5H38V33.5C38 34.6063 37.1063 35.5 36 35.5H34C32.8938 35.5 32 34.6063 32 33.5V28.5H30C28.8938 28.5 28 27.6062 28 26.5V24.5C28 23.3938 28.8938 22.5 30 22.5H32V20.5C32 19.3938 32.8938 18.5 34 18.5ZM34 20.5V23.5C34 24.05 33.55 24.5 33 24.5H30V26.5H33C33.55 26.5 34 26.95 34 27.5V33.5H36V27.5C36 26.95 36.45 26.5 37 26.5H40V24.5H37C36.45 24.5 36 24.05 36 23.5V20.5H34Z" fill="#9ECFFF"/>
<path fill-rule="evenodd" clip-rule="evenodd" d="M22 38.5375C22.5875 38.2 23.2687 38 24 38H45C45.55 38 46 37.55 46 37V17C46 16.45 45.55 16 45 16H24C22.8937 16 22 16.8937 22 18V38.5375ZM36 18.5H34C32.8938 18.5 32 19.3938 32 20.5V22.5H30C28.8938 22.5 28 23.3938 28 24.5V26.5C28 27.6062 28.8938 28.5 30 28.5H32V33.5C32 34.6063 32.8938 35.5 34 35.5H36C37.1063 35.5 38 34.6063 38 33.5V28.5H40C41.1063 28.5 42 27.6062 42 26.5V24.5C42 23.3938 41.1063 22.5 40 22.5H38V20.5C38 19.3938 37.1063 18.5 36 18.5Z" fill="#6BB6FF"/>
<path d="M24 40C22.8937 40 22 40.8937 22 42C22 43.1063 22.8937 44 24 44H44V40H24Z" fill="#E7F3FF"/>
<path d="M34 20.5V23.5C34 24.05 33.55 24.5 33 24.5H30V26.5H33C33.55 26.5 34 26.95 34 27.5V33.5H36V27.5C36 26.95 36.45 26.5 37 26.5H40V24.5H37C36.45 24.5 36 24.05 36 23.5V20.5H34Z" fill="#E7F3FF"/>
</g>
</g>
<defs>
<filter id="filter0_dddd_151_189" x="0" y="0" width="68" height="74" filterUnits="userSpaceOnUse" color-interpolation-filters="sRGB">
<feFlood flood-opacity="0" result="BackgroundImageFix"/>
<feColorMatrix in="SourceAlpha" type="matrix" values="0 0 0 0 0 0 0 0 0 0 0 0 0 0 0 0 0 0 127 0" result="hardAlpha"/>
<feOffset dy="1"/>
<feGaussianBlur stdDeviation="0.5"/>
<feColorMatrix type="matrix" values="0 0 0 0 0 0 0 0 0 0 0 0 0 0 0 0 0 0 0.07 0"/>
<feBlend mode="normal" in2="BackgroundImageFix" result="effect1_dropShadow_151_189"/>
<feColorMatrix in="SourceAlpha" type="matrix" values="0 0 0 0 0 0 0 0 0 0 0 0 0 0 0 0 0 0 127 0" result="hardAlpha"/>
<feOffset dy="2"/>
<feGaussianBlur stdDeviation="1"/>
<feColorMatrix type="matrix" values="0 0 0 0 0 0 0 0 0 0 0 0 0 0 0 0 0 0 0.06 0"/>
<feBlend mode="normal" in2="effect1_dropShadow_151_189" result="effect2_dropShadow_151_189"/>
<feColorMatrix in="SourceAlpha" type="matrix" values="0 0 0 0 0 0 0 0 0 0 0 0 0 0 0 0 0 0 127 0" result="hardAlpha"/>
<feOffset dy="5"/>
<feGaussianBlur stdDeviation="1.5"/>
<feColorMatrix type="matrix" values="0 0 0 0 0 0 0 0 0 0 0 0 0 0 0 0 0 0 0.03 0"/>
<feBlend mode="normal" in2="effect2_dropShadow_151_189" result="effect3_dropShadow_151_189"/>
<feColorMatrix in="SourceAlpha" type="matrix" values="0 0 0 0 0 0 0 0 0 0 0 0 0 0 0 0 0 0 127 0" result="hardAlpha"/>
<feOffset dy="10"/>
<feGaussianBlur stdDeviation="2"/>
<feColorMatrix type="matrix" values="0 0 0 0 0 0 0 0 0 0 0 0 0 0 0 0 0 0 0.01 0"/>
<feBlend mode="normal" in2="effect3_dropShadow_151_189" result="effect4_dropShadow_151_189"/>
<feBlend mode="normal" in="SourceGraphic" in2="effect4_dropShadow_151_189" result="shape"/>
</filter>
<filter id="filter1_dii_151_189" x="17.4" y="12.4" width="33.2" height="37.2" filterUnits="userSpaceOnUse" color-interpolation-filters="sRGB">
<feFlood flood-opacity="0" result="BackgroundImageFix"/>
<feColorMatrix in="SourceAlpha" type="matrix" values="0 0 0 0 0 0 0 0 0 0 0 0 0 0 0 0 0 0 127 0" result="hardAlpha"/>
<feOffset dy="1"/>
<feGaussianBlur stdDeviation="1.3"/>
<feComposite in2="hardAlpha" operator="out"/>
<feColorMatrix type="matrix" values="0 0 0 0 0 0 0 0 0 0 0 0 0 0 0 0 0 0 0.21 0"/>
<feBlend mode="normal" in2="BackgroundImageFix" result="effect1_dropShadow_151_189"/>
<feBlend mode="normal" in="SourceGraphic" in2="effect1_dropShadow_151_189" result="shape"/>
<feColorMatrix in="SourceAlpha" type="matrix" values="0 0 0 0 0 0 0 0 0 0 0 0 0 0 0 0 0 0 127 0" result="hardAlpha"/>
<feOffset dy="0.4"/>
<feGaussianBlur stdDeviation="0.65"/>
<feComposite in2="hardAlpha" operator="arithmetic" k2="-1" k3="1"/>
<feColorMatrix type="matrix" values="0 0 0 0 1 0 0 0 0 1 0 0 0 0 1 0 0 0 0.8 0"/>
<feBlend mode="normal" in2="shape" result="effect2_innerShadow_151_189"/>
<feColorMatrix in="SourceAlpha" type="matrix" values="0 0 0 0 0 0 0 0 0 0 0 0 0 0 0 0 0 0 127 0" result="hardAlpha"/>
<feOffset dy="-1"/>
<feGaussianBlur stdDeviation="0.45"/>
<feComposite in2="hardAlpha" operator="arithmetic" k2="-1" k3="1"/>
<feColorMatrix type="matrix" values="0 0 0 0 0 0 0 0 0 0 0 0 0 0 0 0 0 0 0.24 0"/>
<feBlend mode="normal" in2="effect2_innerShadow_151_189" result="effect3_innerShadow_151_189"/>
</filter>
</defs>
</svg>
