<svg width="68" height="74" viewBox="0 0 68 74" fill="none" xmlns="http://www.w3.org/2000/svg">
<g filter="url(#filter0_dddd_151_196)">
<rect x="4" width="60" height="60" rx="30" fill="#E7F3FF"/>
<g filter="url(#filter1_dii_151_196)">
<path d="M25.2 23.6002C25.8365 23.6002 26.447 23.3473 26.8971 22.8973C27.3471 22.4472 27.6 21.8367 27.6 21.2002C27.6 20.5637 27.3471 19.9532 26.8971 19.5031C26.447 19.0531 25.8365 18.8002 25.2 18.8002C24.5635 18.8002 23.953 19.0531 23.5029 19.5031C23.0529 19.9532 22.8 20.5637 22.8 21.2002C22.8 21.8367 23.0529 22.4472 23.5029 22.8973C23.953 23.3473 24.5635 23.6002 25.2 23.6002ZM25.2 17.2002C26.2609 17.2002 27.2783 17.6216 28.0284 18.3718C28.7786 19.1219 29.2 20.1393 29.2 21.2002C29.2 22.2611 28.7786 23.2785 28.0284 24.0286C27.2783 24.7788 26.2609 25.2002 25.2 25.2002C24.1391 25.2002 23.1217 24.7788 22.3716 24.0286C21.6214 23.2785 21.2 22.2611 21.2 21.2002C21.2 20.1393 21.6214 19.1219 22.3716 18.3718C23.1217 17.6216 24.1391 17.2002 25.2 17.2002ZM31.065 36.4002C28.355 36.4002 26.145 38.5252 26.005 41.2002H37.245C37.28 41.2502 37.315 41.2952 37.355 41.3402C38.085 42.2652 39.145 42.6002 40.125 42.4952C40.17 42.5952 40.22 42.7002 40.275 42.7952H25.73C24.995 42.7952 24.395 42.2002 24.395 41.4602C24.4 37.7852 27.385 34.8002 31.065 34.8002H36C36.045 35.3952 36.265 35.9452 36.6 36.4002H31.065ZM44.4 28.4002H40.4C40.4 27.8502 40.33 27.3102 40.2 26.8002H44.4C47.16 26.8002 49.455 28.8002 49.915 31.4302C49.345 30.7202 48.575 30.3652 47.8 30.2952C47.095 29.1602 45.835 28.4002 44.4 28.4002ZM37.355 31.4602C37.14 31.7352 36.94 32.0252 36.76 32.3302C35.98 32.8802 35.025 33.2052 34 33.2052C31.35 33.2052 29.2 31.0552 29.2 28.4052C29.2 25.7552 31.35 23.6052 34 23.6052C36.65 23.6052 38.8 25.7552 38.8 28.4052C38.8 29.2402 38.585 30.0252 38.21 30.7102C37.895 30.8952 37.605 31.1452 37.355 31.4652V31.4602ZM46 21.2002C46 20.5637 45.7471 19.9532 45.2971 19.5031C44.847 19.0531 44.2365 18.8002 43.6 18.8002C42.9635 18.8002 42.353 19.0531 41.9029 19.5031C41.4529 19.9532 41.2 20.5637 41.2 21.2002C41.2 21.8367 41.4529 22.4472 41.9029 22.8973C42.353 23.3473 42.9635 23.6002 43.6 23.6002C44.2365 23.6002 44.847 23.3473 45.2971 22.8973C45.7471 22.4472 46 21.8367 46 21.2002ZM39.6 21.2002C39.6 20.1393 40.0214 19.1219 40.7716 18.3718C41.5217 17.6216 42.5391 17.2002 43.6 17.2002C44.6609 17.2002 45.6783 17.6216 46.4284 18.3718C47.1786 19.1219 47.6 20.1393 47.6 21.2002C47.6 22.2611 47.1786 23.2785 46.4284 24.0286C45.6783 24.7788 44.6609 25.2002 43.6 25.2002C42.5391 25.2002 41.5217 24.7788 40.7716 24.0286C40.0214 23.2785 39.6 22.2611 39.6 21.2002ZM27.8 26.8002C27.67 27.3102 27.6 27.8502 27.6 28.4002H23.6C21.39 28.4002 19.6 30.1902 19.6 32.4002C19.6 32.8402 19.24 33.2002 18.8 33.2002C18.36 33.2002 18 32.8402 18 32.4002C18 29.3052 20.505 26.8002 23.6 26.8002H27.8ZM37.2 28.4002C37.2 27.5515 36.8629 26.7376 36.2627 26.1375C35.6626 25.5373 34.8487 25.2002 34 25.2002C33.1513 25.2002 32.3374 25.5373 31.7373 26.1375C31.1371 26.7376 30.8 27.5515 30.8 28.4002C30.8 29.2489 31.1371 30.0628 31.7373 30.6629C32.3374 31.2631 33.1513 31.6002 34 31.6002C34.8487 31.6002 35.6626 31.2631 36.2627 30.6629C36.8629 30.0628 37.2 29.2489 37.2 28.4002ZM43.045 31.6352C43.03 32.4352 42.58 33.0852 41.945 33.4552C41.305 33.8252 40.52 33.8852 39.825 33.5002C39.58 33.8202 39.38 34.1702 39.225 34.5402C39.91 34.9502 40.25 35.6602 40.25 36.4002C40.25 37.1402 39.905 37.8502 39.225 38.2602C39.38 38.6302 39.585 38.9802 39.825 39.3002C40.52 38.9152 41.305 38.9702 41.945 39.3452C42.58 39.7152 43.03 40.3602 43.045 41.1652C43.44 41.2152 43.855 41.2152 44.245 41.1652C44.26 40.3652 44.71 39.7152 45.345 39.3452C45.985 38.9752 46.77 38.9152 47.465 39.3002C47.71 38.9802 47.91 38.6302 48.065 38.2602C47.38 37.8502 47.04 37.1402 47.04 36.4002C47.04 35.6602 47.385 34.9502 48.065 34.5402C47.91 34.1702 47.705 33.8202 47.465 33.5002C46.77 33.8852 45.985 33.8302 45.345 33.4552C44.71 33.0852 44.26 32.4402 44.245 31.6352C43.85 31.5852 43.435 31.5852 43.045 31.6352ZM42.74 30.0602C43.33 29.9752 43.955 29.9752 44.55 30.0602C45.36 30.1752 45.845 30.8852 45.845 31.5952C45.845 31.7752 45.935 31.9452 46.15 32.0702C46.36 32.1902 46.545 32.1852 46.705 32.0902C47.315 31.7352 48.175 31.8002 48.68 32.4452C49.055 32.9202 49.36 33.4502 49.59 34.0152C49.895 34.7752 49.52 35.5502 48.91 35.9002C48.75 35.9902 48.65 36.1552 48.65 36.3952C48.65 36.6352 48.75 36.8002 48.91 36.8902C49.52 37.2452 49.895 38.0202 49.59 38.7752C49.365 39.3402 49.055 39.8702 48.685 40.3452C48.18 40.9852 47.32 41.0502 46.71 40.7002C46.55 40.6102 46.365 40.6002 46.155 40.7202C45.94 40.8452 45.85 41.0152 45.85 41.1952C45.85 41.9002 45.365 42.6152 44.555 42.7302C43.965 42.8152 43.34 42.8152 42.745 42.7302C41.935 42.6152 41.45 41.9052 41.45 41.1952C41.45 41.0152 41.36 40.8452 41.145 40.7202C40.935 40.6002 40.75 40.6052 40.59 40.7002C39.98 41.0552 39.12 40.9902 38.615 40.3452C38.24 39.8702 37.935 39.3402 37.71 38.7752C37.405 38.0152 37.78 37.2402 38.39 36.8902C38.55 36.8002 38.65 36.6352 38.65 36.3952C38.65 36.1552 38.55 35.9902 38.39 35.9002C37.78 35.5452 37.405 34.7702 37.71 34.0152C37.935 33.4502 38.245 32.9202 38.62 32.4452C39.125 31.8052 39.985 31.7402 40.595 32.0902C40.755 32.1802 40.94 32.1902 41.15 32.0702C41.365 31.9452 41.455 31.7752 41.455 31.5952C41.455 30.8902 41.94 30.1752 42.75 30.0602H42.74ZM43.6 35.6002C43.3878 35.6002 43.1843 35.6845 43.0343 35.8345C42.8843 35.9845 42.8 36.188 42.8 36.4002C42.8 36.6124 42.8843 36.8159 43.0343 36.9659C43.1843 37.1159 43.3878 37.2002 43.6 37.2002C43.8122 37.2002 44.0157 37.1159 44.1657 36.9659C44.3157 36.8159 44.4 36.6124 44.4 36.4002C44.4 36.188 44.3157 35.9845 44.1657 35.8345C44.0157 35.6845 43.8122 35.6002 43.6 35.6002ZM41.2 36.4002C41.2 35.7637 41.4529 35.1532 41.9029 34.7031C42.353 34.2531 42.9635 34.0002 43.6 34.0002C44.2365 34.0002 44.847 34.2531 45.2971 34.7031C45.7471 35.1532 46 35.7637 46 36.4002C46 37.0367 45.7471 37.6472 45.2971 38.0973C44.847 38.5473 44.2365 38.8002 43.6 38.8002C42.9635 38.8002 42.353 38.5473 41.9029 38.0973C41.4529 37.6472 41.2 37.0367 41.2 36.4002Z" fill="#6BB6FF"/>
<path d="M46 21.2002C46 20.5637 45.7471 19.9532 45.2971 19.5031C44.847 19.0531 44.2365 18.8002 43.6 18.8002C42.9635 18.8002 42.353 19.0531 41.9029 19.5031C41.4529 19.9532 41.2 20.5637 41.2 21.2002C41.2 21.8367 41.4529 22.4472 41.9029 22.8973C42.353 23.3473 42.9635 23.6002 43.6 23.6002C44.2365 23.6002 44.847 23.3473 45.2971 22.8973C45.7471 22.4472 46 21.8367 46 21.2002Z" fill="#6BB6FF"/>
<path d="M25.2 23.6002C25.8365 23.6002 26.447 23.3473 26.8971 22.8973C27.3471 22.4472 27.6 21.8367 27.6 21.2002C27.6 20.5637 27.3471 19.9532 26.8971 19.5031C26.447 19.0531 25.8365 18.8002 25.2 18.8002C24.5635 18.8002 23.953 19.0531 23.5029 19.5031C23.0529 19.9532 22.8 20.5637 22.8 21.2002C22.8 21.8367 23.0529 22.4472 23.5029 22.8973C23.953 23.3473 24.5635 23.6002 25.2 23.6002Z" fill="#6BB6FF"/>
<path d="M43.6 35.6002C43.3878 35.6002 43.1843 35.6845 43.0343 35.8345C42.8843 35.9845 42.8 36.188 42.8 36.4002C42.8 36.6124 42.8843 36.8159 43.0343 36.9659C43.1843 37.1159 43.3878 37.2002 43.6 37.2002C43.8122 37.2002 44.0157 37.1159 44.1657 36.9659C44.3157 36.8159 44.4 36.6124 44.4 36.4002C44.4 36.188 44.3157 35.9845 44.1657 35.8345C44.0157 35.6845 43.8122 35.6002 43.6 35.6002Z" fill="#6BB6FF"/>
<path fill-rule="evenodd" clip-rule="evenodd" d="M43.045 31.6352C43.03 32.4352 42.58 33.0852 41.945 33.4552C41.305 33.8252 40.52 33.8852 39.825 33.5002C39.58 33.8202 39.38 34.1702 39.225 34.5402C39.91 34.9502 40.25 35.6602 40.25 36.4002C40.25 37.1402 39.905 37.8502 39.225 38.2602C39.38 38.6302 39.585 38.9802 39.825 39.3002C40.52 38.9152 41.305 38.9702 41.945 39.3452C42.58 39.7152 43.03 40.3602 43.045 41.1652C43.44 41.2152 43.855 41.2152 44.245 41.1652C44.26 40.3652 44.71 39.7152 45.345 39.3452C45.985 38.9752 46.77 38.9152 47.465 39.3002C47.71 38.9802 47.91 38.6302 48.065 38.2602C47.38 37.8502 47.04 37.1402 47.04 36.4002C47.04 35.6602 47.385 34.9502 48.065 34.5402C47.91 34.1702 47.705 33.8202 47.465 33.5002C46.77 33.8852 45.985 33.8302 45.345 33.4552C44.71 33.0852 44.26 32.4402 44.245 31.6352C43.85 31.5852 43.435 31.5852 43.045 31.6352ZM41.9029 34.7031C41.4529 35.1532 41.2 35.7637 41.2 36.4002C41.2 37.0367 41.4529 37.6472 41.9029 38.0973C42.353 38.5473 42.9635 38.8002 43.6 38.8002C44.2365 38.8002 44.847 38.5473 45.2971 38.0973C45.7471 37.6472 46 37.0367 46 36.4002C46 35.7637 45.7471 35.1532 45.2971 34.7031C44.847 34.2531 44.2365 34.0002 43.6 34.0002C42.9635 34.0002 42.353 34.2531 41.9029 34.7031Z" fill="#E7F3FF"/>
<path d="M37.2 28.4002C37.2 27.5515 36.8629 26.7376 36.2627 26.1375C35.6626 25.5373 34.8487 25.2002 34 25.2002C33.1513 25.2002 32.3374 25.5373 31.7373 26.1375C31.1371 26.7376 30.8 27.5515 30.8 28.4002C30.8 29.2489 31.1371 30.0628 31.7373 30.6629C32.3374 31.2631 33.1513 31.6002 34 31.6002C34.8487 31.6002 35.6626 31.2631 36.2627 30.6629C36.8629 30.0628 37.2 29.2489 37.2 28.4002Z" fill="#6BB6FF"/>
</g>
</g>
<defs>
<filter id="filter0_dddd_151_196" x="0" y="0" width="68" height="74" filterUnits="userSpaceOnUse" color-interpolation-filters="sRGB">
<feFlood flood-opacity="0" result="BackgroundImageFix"/>
<feColorMatrix in="SourceAlpha" type="matrix" values="0 0 0 0 0 0 0 0 0 0 0 0 0 0 0 0 0 0 127 0" result="hardAlpha"/>
<feOffset dy="1"/>
<feGaussianBlur stdDeviation="0.5"/>
<feColorMatrix type="matrix" values="0 0 0 0 0 0 0 0 0 0 0 0 0 0 0 0 0 0 0.07 0"/>
<feBlend mode="normal" in2="BackgroundImageFix" result="effect1_dropShadow_151_196"/>
<feColorMatrix in="SourceAlpha" type="matrix" values="0 0 0 0 0 0 0 0 0 0 0 0 0 0 0 0 0 0 127 0" result="hardAlpha"/>
<feOffset dy="2"/>
<feGaussianBlur stdDeviation="1"/>
<feColorMatrix type="matrix" values="0 0 0 0 0 0 0 0 0 0 0 0 0 0 0 0 0 0 0.06 0"/>
<feBlend mode="normal" in2="effect1_dropShadow_151_196" result="effect2_dropShadow_151_196"/>
<feColorMatrix in="SourceAlpha" type="matrix" values="0 0 0 0 0 0 0 0 0 0 0 0 0 0 0 0 0 0 127 0" result="hardAlpha"/>
<feOffset dy="5"/>
<feGaussianBlur stdDeviation="1.5"/>
<feColorMatrix type="matrix" values="0 0 0 0 0 0 0 0 0 0 0 0 0 0 0 0 0 0 0.03 0"/>
<feBlend mode="normal" in2="effect2_dropShadow_151_196" result="effect3_dropShadow_151_196"/>
<feColorMatrix in="SourceAlpha" type="matrix" values="0 0 0 0 0 0 0 0 0 0 0 0 0 0 0 0 0 0 127 0" result="hardAlpha"/>
<feOffset dy="10"/>
<feGaussianBlur stdDeviation="2"/>
<feColorMatrix type="matrix" values="0 0 0 0 0 0 0 0 0 0 0 0 0 0 0 0 0 0 0.01 0"/>
<feBlend mode="normal" in2="effect3_dropShadow_151_196" result="effect4_dropShadow_151_196"/>
<feBlend mode="normal" in="SourceGraphic" in2="effect4_dropShadow_151_196" result="shape"/>
</filter>
<filter id="filter1_dii_151_196" x="16.3" y="13.3" width="35.4" height="35.4" filterUnits="userSpaceOnUse" color-interpolation-filters="sRGB">
<feFlood flood-opacity="0" result="BackgroundImageFix"/>
<feColorMatrix in="SourceAlpha" type="matrix" values="0 0 0 0 0 0 0 0 0 0 0 0 0 0 0 0 0 0 127 0" result="hardAlpha"/>
<feOffset dy="1"/>
<feGaussianBlur stdDeviation="0.85"/>
<feComposite in2="hardAlpha" operator="out"/>
<feColorMatrix type="matrix" values="0 0 0 0 0 0 0 0 0 0 0 0 0 0 0 0 0 0 0.25 0"/>
<feBlend mode="normal" in2="BackgroundImageFix" result="effect1_dropShadow_151_196"/>
<feBlend mode="normal" in="SourceGraphic" in2="effect1_dropShadow_151_196" result="shape"/>
<feColorMatrix in="SourceAlpha" type="matrix" values="0 0 0 0 0 0 0 0 0 0 0 0 0 0 0 0 0 0 127 0" result="hardAlpha"/>
<feOffset dy="0.4"/>
<feGaussianBlur stdDeviation="0.4"/>
<feComposite in2="hardAlpha" operator="arithmetic" k2="-1" k3="1"/>
<feColorMatrix type="matrix" values="0 0 0 0 1 0 0 0 0 1 0 0 0 0 1 0 0 0 0.9 0"/>
<feBlend mode="normal" in2="shape" result="effect2_innerShadow_151_196"/>
<feColorMatrix in="SourceAlpha" type="matrix" values="0 0 0 0 0 0 0 0 0 0 0 0 0 0 0 0 0 0 127 0" result="hardAlpha"/>
<feOffset dy="-0.4"/>
<feGaussianBlur stdDeviation="0.3"/>
<feComposite in2="hardAlpha" operator="arithmetic" k2="-1" k3="1"/>
<feColorMatrix type="matrix" values="0 0 0 0 0 0 0 0 0 0 0 0 0 0 0 0 0 0 0.14 0"/>
<feBlend mode="normal" in2="effect2_innerShadow_151_196" result="effect3_innerShadow_151_196"/>
</filter>
</defs>
</svg>
