<svg width="68" height="74" viewBox="0 0 68 74" fill="none" xmlns="http://www.w3.org/2000/svg">
<g filter="url(#filter0_dddd_151_203)">
<rect x="4" width="60" height="60" rx="30" fill="#E7F3FF"/>
<g filter="url(#filter1_dii_151_203)">
<path d="M18.8 18C18.36 18 18 18.36 18 18.8V26C18 27.325 19.075 28.4 20.4 28.4H21.2V41.2C21.2 41.64 21.56 42 22 42C22.44 42 22.8 41.64 22.8 41.2V28.4H23.6C24.925 28.4 26 27.325 26 26V18.8C26 18.36 25.64 18 25.2 18C24.76 18 24.4 18.36 24.4 18.8V26C24.4 26.44 24.04 26.8 23.6 26.8H22.8V18.8C22.8 18.36 22.44 18 22 18C21.56 18 21.2 18.36 21.2 18.8V26.8H20.4C19.96 26.8 19.6 26.44 19.6 26V18.8C19.6 18.36 19.24 18 18.8 18ZM42.9 21.145C40.765 19.19 37.92 18 34.8 18C32.1 18 29.605 18.895 27.6 20.4V22.495C29.47 20.7 32.005 19.6 34.8 19.6C37.745 19.6 40.4 20.825 42.295 22.79C42.45 22.19 42.655 21.645 42.9 21.145ZM44.125 34.615C42.425 38.045 38.885 40.4 34.8 40.4C31.11 40.4 27.87 38.48 26.025 35.58C25.6 35.905 25.11 36.145 24.575 36.28C26.685 39.71 30.475 42 34.8 42C39.72 42 43.95 39.04 45.8 34.8H45.2C44.82 34.8 44.46 34.735 44.125 34.615ZM42 30C42 29.0545 41.8138 28.1182 41.4519 27.2447C41.0901 26.3711 40.5597 25.5774 39.8912 24.9088C39.2226 24.2402 38.4289 23.7099 37.5553 23.3481C36.6818 22.9862 35.7455 22.8 34.8 22.8C33.8545 22.8 32.9182 22.9862 32.0447 23.3481C31.1711 23.7099 30.3774 24.2402 29.7088 24.9088C29.0402 25.5774 28.5099 26.3711 28.1481 27.2447C27.7862 28.1182 27.6 29.0545 27.6 30C27.6 30.9455 27.7862 31.8818 28.1481 32.7553C28.5099 33.6289 29.0402 34.4226 29.7088 35.0912C30.3774 35.7598 31.1711 36.2901 32.0447 36.6519C32.9182 37.0138 33.8545 37.2 34.8 37.2C35.7455 37.2 36.6818 37.0138 37.5553 36.6519C38.4289 36.2901 39.2226 35.7598 39.8912 35.0912C40.5597 34.4226 41.0901 33.6289 41.4519 32.7553C41.8138 31.8818 42 30.9455 42 30ZM29.2 30C29.2 28.5148 29.79 27.0904 30.8402 26.0402C31.8904 24.99 33.3148 24.4 34.8 24.4C36.2852 24.4 37.7096 24.99 38.7598 26.0402C39.81 27.0904 40.4 28.5148 40.4 30C40.4 31.4852 39.81 32.9096 38.7598 33.9598C37.7096 35.01 36.2852 35.6 34.8 35.6C33.3148 35.6 31.8904 35.01 30.8402 33.9598C29.79 32.9096 29.2 31.4852 29.2 30ZM48.4 19.92V31.6H45.2V25.2C45.2 22.135 47.17 20.59 48.4 19.92ZM50 31.6V19.045C50 18.47 49.535 18 48.955 18C48.85 18 48.75 18.015 48.65 18.05C47.81 18.36 43.6 20.16 43.6 25.2V31.6C43.6 32.485 44.315 33.2 45.2 33.2H48.4V41.2C48.4 41.64 48.76 42 49.2 42C49.64 42 50 41.64 50 41.2V31.6Z" fill="#6BB6FF"/>
<path d="M29.2 30C29.2 28.5148 29.79 27.0904 30.8402 26.0402C31.8904 24.99 33.3148 24.4 34.8 24.4C36.2852 24.4 37.7096 24.99 38.7598 26.0402C39.81 27.0904 40.4 28.5148 40.4 30C40.4 31.4852 39.81 32.9096 38.7598 33.9598C37.7096 35.01 36.2852 35.6 34.8 35.6C33.3148 35.6 31.8904 35.01 30.8402 33.9598C29.79 32.9096 29.2 31.4852 29.2 30Z" fill="#6BB6FF"/>
<path d="M48.4 19.92V31.6H45.2V25.2C45.2 22.135 47.17 20.59 48.4 19.92Z" fill="#6BB6FF"/>
</g>
</g>
<defs>
<filter id="filter0_dddd_151_203" x="0" y="0" width="68" height="74" filterUnits="userSpaceOnUse" color-interpolation-filters="sRGB">
<feFlood flood-opacity="0" result="BackgroundImageFix"/>
<feColorMatrix in="SourceAlpha" type="matrix" values="0 0 0 0 0 0 0 0 0 0 0 0 0 0 0 0 0 0 127 0" result="hardAlpha"/>
<feOffset dy="1"/>
<feGaussianBlur stdDeviation="0.5"/>
<feColorMatrix type="matrix" values="0 0 0 0 0 0 0 0 0 0 0 0 0 0 0 0 0 0 0.07 0"/>
<feBlend mode="normal" in2="BackgroundImageFix" result="effect1_dropShadow_151_203"/>
<feColorMatrix in="SourceAlpha" type="matrix" values="0 0 0 0 0 0 0 0 0 0 0 0 0 0 0 0 0 0 127 0" result="hardAlpha"/>
<feOffset dy="2"/>
<feGaussianBlur stdDeviation="1"/>
<feColorMatrix type="matrix" values="0 0 0 0 0 0 0 0 0 0 0 0 0 0 0 0 0 0 0.06 0"/>
<feBlend mode="normal" in2="effect1_dropShadow_151_203" result="effect2_dropShadow_151_203"/>
<feColorMatrix in="SourceAlpha" type="matrix" values="0 0 0 0 0 0 0 0 0 0 0 0 0 0 0 0 0 0 127 0" result="hardAlpha"/>
<feOffset dy="5"/>
<feGaussianBlur stdDeviation="1.5"/>
<feColorMatrix type="matrix" values="0 0 0 0 0 0 0 0 0 0 0 0 0 0 0 0 0 0 0.03 0"/>
<feBlend mode="normal" in2="effect2_dropShadow_151_203" result="effect3_dropShadow_151_203"/>
<feColorMatrix in="SourceAlpha" type="matrix" values="0 0 0 0 0 0 0 0 0 0 0 0 0 0 0 0 0 0 127 0" result="hardAlpha"/>
<feOffset dy="10"/>
<feGaussianBlur stdDeviation="2"/>
<feColorMatrix type="matrix" values="0 0 0 0 0 0 0 0 0 0 0 0 0 0 0 0 0 0 0.01 0"/>
<feBlend mode="normal" in2="effect3_dropShadow_151_203" result="effect4_dropShadow_151_203"/>
<feBlend mode="normal" in="SourceGraphic" in2="effect4_dropShadow_151_203" result="shape"/>
</filter>
<filter id="filter1_dii_151_203" x="16.3" y="13.3" width="35.4" height="35.4" filterUnits="userSpaceOnUse" color-interpolation-filters="sRGB">
<feFlood flood-opacity="0" result="BackgroundImageFix"/>
<feColorMatrix in="SourceAlpha" type="matrix" values="0 0 0 0 0 0 0 0 0 0 0 0 0 0 0 0 0 0 127 0" result="hardAlpha"/>
<feOffset dy="1"/>
<feGaussianBlur stdDeviation="0.85"/>
<feComposite in2="hardAlpha" operator="out"/>
<feColorMatrix type="matrix" values="0 0 0 0 0 0 0 0 0 0 0 0 0 0 0 0 0 0 0.25 0"/>
<feBlend mode="normal" in2="BackgroundImageFix" result="effect1_dropShadow_151_203"/>
<feBlend mode="normal" in="SourceGraphic" in2="effect1_dropShadow_151_203" result="shape"/>
<feColorMatrix in="SourceAlpha" type="matrix" values="0 0 0 0 0 0 0 0 0 0 0 0 0 0 0 0 0 0 127 0" result="hardAlpha"/>
<feOffset dy="0.4"/>
<feGaussianBlur stdDeviation="0.4"/>
<feComposite in2="hardAlpha" operator="arithmetic" k2="-1" k3="1"/>
<feColorMatrix type="matrix" values="0 0 0 0 1 0 0 0 0 1 0 0 0 0 1 0 0 0 0.9 0"/>
<feBlend mode="normal" in2="shape" result="effect2_innerShadow_151_203"/>
<feColorMatrix in="SourceAlpha" type="matrix" values="0 0 0 0 0 0 0 0 0 0 0 0 0 0 0 0 0 0 127 0" result="hardAlpha"/>
<feOffset dy="-0.4"/>
<feGaussianBlur stdDeviation="0.3"/>
<feComposite in2="hardAlpha" operator="arithmetic" k2="-1" k3="1"/>
<feColorMatrix type="matrix" values="0 0 0 0 0 0 0 0 0 0 0 0 0 0 0 0 0 0 0.14 0"/>
<feBlend mode="normal" in2="effect2_innerShadow_151_203" result="effect3_innerShadow_151_203"/>
</filter>
</defs>
</svg>
